<mxfile host="app.diagrams.net" modified="2022-08-10T07:56:14.980Z" agent="5.0 (Windows NT 10.0; Win64; x64) AppleWebKit/537.36 (KHTML, like Gecko) Chrome/103.0.0.0 Safari/537.36" etag="iblbD7IezBPkpxiGdLnG" version="20.2.3" type="github">
  <diagram id="RTVtzZQdoQTfXK5mdy-T" name="Page-1">
    <mxGraphModel dx="813" dy="435" grid="1" gridSize="10" guides="1" tooltips="1" connect="1" arrows="1" fold="1" page="1" pageScale="1" pageWidth="827" pageHeight="1169" math="0" shadow="0">
      <root>
        <mxCell id="0" />
        <mxCell id="1" parent="0" />
        <mxCell id="bs_kAsDZj9vUem20uVy0-1" value="" style="outlineConnect=0;dashed=0;verticalLabelPosition=bottom;verticalAlign=top;align=center;html=1;shape=mxgraph.aws3.s3;fillColor=#E05243;gradientColor=none;" vertex="1" parent="1">
          <mxGeometry x="102" y="367" width="60" height="73" as="geometry" />
        </mxCell>
        <mxCell id="bs_kAsDZj9vUem20uVy0-2" value="" style="sketch=0;points=[[0,0,0],[0.25,0,0],[0.5,0,0],[0.75,0,0],[1,0,0],[0,1,0],[0.25,1,0],[0.5,1,0],[0.75,1,0],[1,1,0],[0,0.25,0],[0,0.5,0],[0,0.75,0],[1,0.25,0],[1,0.5,0],[1,0.75,0]];outlineConnect=0;fontColor=#232F3E;gradientColor=#F78E04;gradientDirection=north;fillColor=#D05C17;strokeColor=#ffffff;dashed=0;verticalLabelPosition=bottom;verticalAlign=top;align=center;html=1;fontSize=12;fontStyle=0;aspect=fixed;shape=mxgraph.aws4.resourceIcon;resIcon=mxgraph.aws4.lambda;" vertex="1" parent="1">
          <mxGeometry x="302" y="372" width="63" height="63" as="geometry" />
        </mxCell>
        <mxCell id="bs_kAsDZj9vUem20uVy0-3" value="" style="sketch=0;points=[[0,0,0],[0.25,0,0],[0.5,0,0],[0.75,0,0],[1,0,0],[0,1,0],[0.25,1,0],[0.5,1,0],[0.75,1,0],[1,1,0],[0,0.25,0],[0,0.5,0],[0,0.75,0],[1,0.25,0],[1,0.5,0],[1,0.75,0]];outlineConnect=0;fontColor=#232F3E;gradientColor=#4D72F3;gradientDirection=north;fillColor=#3334B9;strokeColor=#ffffff;dashed=0;verticalLabelPosition=bottom;verticalAlign=top;align=center;html=1;fontSize=12;fontStyle=0;aspect=fixed;shape=mxgraph.aws4.resourceIcon;resIcon=mxgraph.aws4.dynamodb;" vertex="1" parent="1">
          <mxGeometry x="502" y="353.5" width="100" height="100" as="geometry" />
        </mxCell>
        <mxCell id="bs_kAsDZj9vUem20uVy0-4" value="" style="outlineConnect=0;dashed=0;verticalLabelPosition=bottom;verticalAlign=top;align=center;html=1;shape=mxgraph.aws3.cloudwatch;fillColor=#759C3E;gradientColor=none;" vertex="1" parent="1">
          <mxGeometry x="312.5" y="492" width="50" height="53" as="geometry" />
        </mxCell>
        <mxCell id="bs_kAsDZj9vUem20uVy0-6" value="" style="endArrow=classic;html=1;rounded=0;" edge="1" parent="1">
          <mxGeometry relative="1" as="geometry">
            <mxPoint x="142" y="403.21" as="sourcePoint" />
            <mxPoint x="302" y="403.21" as="targetPoint" />
          </mxGeometry>
        </mxCell>
        <mxCell id="bs_kAsDZj9vUem20uVy0-8" value="S3" style="edgeLabel;resizable=0;html=1;align=left;verticalAlign=bottom;" connectable="0" vertex="1" parent="bs_kAsDZj9vUem20uVy0-6">
          <mxGeometry x="-1" relative="1" as="geometry">
            <mxPoint x="-20" y="-36" as="offset" />
          </mxGeometry>
        </mxCell>
        <mxCell id="bs_kAsDZj9vUem20uVy0-9" value="" style="endArrow=classic;html=1;rounded=0;" edge="1" parent="1">
          <mxGeometry relative="1" as="geometry">
            <mxPoint x="365" y="403.41999999999996" as="sourcePoint" />
            <mxPoint x="501" y="403.21" as="targetPoint" />
          </mxGeometry>
        </mxCell>
        <mxCell id="bs_kAsDZj9vUem20uVy0-11" value="CloudWatch Logs" style="edgeLabel;resizable=0;html=1;align=left;verticalAlign=bottom;" connectable="0" vertex="1" parent="bs_kAsDZj9vUem20uVy0-9">
          <mxGeometry x="-1" relative="1" as="geometry">
            <mxPoint x="-73" y="157" as="offset" />
          </mxGeometry>
        </mxCell>
        <mxCell id="bs_kAsDZj9vUem20uVy0-12" value="DynamoDB" style="edgeLabel;resizable=0;html=1;align=right;verticalAlign=bottom;" connectable="0" vertex="1" parent="bs_kAsDZj9vUem20uVy0-9">
          <mxGeometry x="1" relative="1" as="geometry">
            <mxPoint x="81" y="-51" as="offset" />
          </mxGeometry>
        </mxCell>
        <mxCell id="bs_kAsDZj9vUem20uVy0-17" value="" style="sketch=0;outlineConnect=0;fontColor=#232F3E;gradientColor=none;fillColor=#BF0816;strokeColor=none;dashed=0;verticalLabelPosition=bottom;verticalAlign=top;align=center;html=1;fontSize=12;fontStyle=0;aspect=fixed;pointerEvents=1;shape=mxgraph.aws4.role;" vertex="1" parent="1">
          <mxGeometry x="337.68" y="310" width="24.82" height="14" as="geometry" />
        </mxCell>
        <mxCell id="bs_kAsDZj9vUem20uVy0-22" value="" style="endArrow=classic;html=1;rounded=0;entryX=0.35;entryY=0;entryDx=0;entryDy=0;entryPerimeter=0;exitX=0.381;exitY=1.079;exitDx=0;exitDy=0;exitPerimeter=0;" edge="1" parent="1" target="bs_kAsDZj9vUem20uVy0-4">
          <mxGeometry relative="1" as="geometry">
            <mxPoint x="330.00299999999993" y="439.977" as="sourcePoint" />
            <mxPoint x="430" y="460" as="targetPoint" />
          </mxGeometry>
        </mxCell>
        <mxCell id="bs_kAsDZj9vUem20uVy0-23" value="Logs" style="edgeLabel;resizable=0;html=1;align=center;verticalAlign=middle;" connectable="0" vertex="1" parent="bs_kAsDZj9vUem20uVy0-22">
          <mxGeometry relative="1" as="geometry" />
        </mxCell>
        <mxCell id="bs_kAsDZj9vUem20uVy0-24" value="LambdaFunction" style="edgeLabel;resizable=0;html=1;align=left;verticalAlign=bottom;" connectable="0" vertex="1" parent="1">
          <mxGeometry x="289.59" y="371.99999999999994" as="geometry" />
        </mxCell>
        <mxCell id="bs_kAsDZj9vUem20uVy0-25" value="" style="sketch=0;points=[[0,0,0],[0.25,0,0],[0.5,0,0],[0.75,0,0],[1,0,0],[0,1,0],[0.25,1,0],[0.5,1,0],[0.75,1,0],[1,1,0],[0,0.25,0],[0,0.5,0],[0,0.75,0],[1,0.25,0],[1,0.5,0],[1,0.75,0]];outlineConnect=0;fontColor=#232F3E;gradientColor=#FF4F8B;gradientDirection=north;fillColor=#BC1356;strokeColor=#ffffff;dashed=0;verticalLabelPosition=bottom;verticalAlign=top;align=center;html=1;fontSize=12;fontStyle=0;aspect=fixed;shape=mxgraph.aws4.resourceIcon;resIcon=mxgraph.aws4.sns;" vertex="1" parent="1">
          <mxGeometry x="502" y="220" width="78" height="78" as="geometry" />
        </mxCell>
        <mxCell id="bs_kAsDZj9vUem20uVy0-27" value="" style="endArrow=classic;html=1;rounded=0;" edge="1" parent="1">
          <mxGeometry relative="1" as="geometry">
            <mxPoint x="326" y="260" as="sourcePoint" />
            <mxPoint x="500" y="260.18" as="targetPoint" />
          </mxGeometry>
        </mxCell>
        <mxCell id="bs_kAsDZj9vUem20uVy0-29" value="" style="endArrow=none;html=1;rounded=0;" edge="1" parent="1">
          <mxGeometry width="50" height="50" relative="1" as="geometry">
            <mxPoint x="329" y="372" as="sourcePoint" />
            <mxPoint x="329" y="260" as="targetPoint" />
          </mxGeometry>
        </mxCell>
        <mxCell id="bs_kAsDZj9vUem20uVy0-31" value="&lt;span style=&quot;font-size: 11px;&quot;&gt;SNS(&lt;/span&gt;&lt;span style=&quot;font-size: 11px;&quot;&gt;s3-dynamo-topic)&lt;/span&gt;" style="text;whiteSpace=wrap;html=1;" vertex="1" parent="1">
          <mxGeometry x="492" y="199" width="120" height="40" as="geometry" />
        </mxCell>
        <mxCell id="bs_kAsDZj9vUem20uVy0-32" value="SUCCESS" style="dashed=0;html=1;rounded=1;strokeColor=#008364;fontSize=12;align=center;fontStyle=1;strokeWidth=2;fontColor=#008364" vertex="1" parent="1">
          <mxGeometry x="365" y="230" width="70" height="20" as="geometry" />
        </mxCell>
        <mxCell id="bs_kAsDZj9vUem20uVy0-34" value="" style="shape=image;html=1;verticalAlign=top;verticalLabelPosition=bottom;labelBackgroundColor=#ffffff;imageAspect=0;aspect=fixed;image=https://cdn2.iconfinder.com/data/icons/social-media-2189/48/21-Gmail-128.png" vertex="1" parent="1">
          <mxGeometry x="676" y="232.5" width="53" height="53" as="geometry" />
        </mxCell>
        <mxCell id="bs_kAsDZj9vUem20uVy0-35" value="" style="endArrow=classic;html=1;rounded=0;entryX=0;entryY=0.5;entryDx=0;entryDy=0;" edge="1" parent="1" target="bs_kAsDZj9vUem20uVy0-34">
          <mxGeometry width="50" height="50" relative="1" as="geometry">
            <mxPoint x="576" y="259" as="sourcePoint" />
            <mxPoint x="630" y="215" as="targetPoint" />
          </mxGeometry>
        </mxCell>
        <mxCell id="bs_kAsDZj9vUem20uVy0-36" value="Gmail&amp;nbsp; &amp;nbsp;&amp;nbsp;" style="edgeLabel;resizable=0;html=1;align=right;verticalAlign=bottom;" connectable="0" vertex="1" parent="1">
          <mxGeometry x="728.999837867937" y="240.0000002503511" as="geometry" />
        </mxCell>
        <mxCell id="bs_kAsDZj9vUem20uVy0-37" value="&lt;font style=&quot;font-size: 9px;&quot;&gt;Lambda Execution Role:&lt;br&gt;&lt;span style=&quot;background-color: initial;&quot;&gt;&amp;nbsp; &amp;nbsp; &amp;nbsp; &amp;nbsp; &amp;nbsp; &amp;nbsp; &amp;nbsp; &amp;nbsp;S3 Read Access&lt;/span&gt;&lt;br&gt;&lt;/font&gt;&lt;blockquote style=&quot;margin: 0 0 0 40px; border: none; padding: 0px;&quot;&gt;&lt;font style=&quot;font-size: 9px;&quot;&gt;&lt;div style=&quot;&quot;&gt;&lt;span style=&quot;background-color: initial;&quot;&gt;&amp;nbsp; &amp;nbsp; &amp;nbsp; &amp;nbsp; &amp;nbsp; &amp;nbsp; &amp;nbsp;DynamoDB Write Access&lt;/span&gt;&lt;/div&gt;&lt;div style=&quot;&quot;&gt;&lt;span style=&quot;background-color: initial;&quot;&gt;CW Write Access&lt;/span&gt;&lt;br&gt;&lt;/div&gt;&lt;/font&gt;&lt;font style=&quot;font-size: 9px;&quot;&gt;&lt;div style=&quot;&quot;&gt;&lt;span style=&quot;background-color: initial;&quot;&gt;&amp;nbsp; SNS Write Access&lt;/span&gt;&lt;/div&gt;&lt;/font&gt;&lt;/blockquote&gt;" style="text;html=1;align=center;verticalAlign=middle;resizable=0;points=[];autosize=1;strokeColor=none;fillColor=none;" vertex="1" parent="1">
          <mxGeometry x="286" y="282" width="200" height="70" as="geometry" />
        </mxCell>
        <mxCell id="bs_kAsDZj9vUem20uVy0-38" value="trigger" style="text;html=1;align=center;verticalAlign=middle;resizable=0;points=[];autosize=1;strokeColor=none;fillColor=none;fontSize=9;" vertex="1" parent="1">
          <mxGeometry x="190" y="380" width="50" height="20" as="geometry" />
        </mxCell>
        <mxCell id="bs_kAsDZj9vUem20uVy0-39" value="write" style="text;html=1;align=center;verticalAlign=middle;resizable=0;points=[];autosize=1;strokeColor=none;fillColor=none;fontSize=9;" vertex="1" parent="1">
          <mxGeometry x="410" y="380" width="40" height="20" as="geometry" />
        </mxCell>
      </root>
    </mxGraphModel>
  </diagram>
</mxfile>
